<svg xmlns="http://www.w3.org/2000/svg" width="24.857" height="29" viewBox="0 0 24.857 29"><defs><style>.a{fill:#f7f7f7;}</style></defs><path class="a" d="M18.429,3a7.6,7.6,0,1,0,7.6,7.6A7.6,7.6,0,0,0,18.429,3Zm0,12.429A4.833,4.833,0,1,1,23.262,10.6,4.833,4.833,0,0,1,18.429,15.429ZM30.236,24.4a21.612,21.612,0,0,0-11.807-3.452A22.164,22.164,0,0,0,6.621,24.336L6,24.75v5.869A1.381,1.381,0,0,0,7.381,32h22.1a1.381,1.381,0,0,0,1.381-1.381V24.75ZM28.1,29.238H8.762V26.269a19.609,19.609,0,0,1,9.667-2.555A18.988,18.988,0,0,1,28.1,26.338Z" transform="translate(-6 -3)"/></svg>